<?xml version="1.0" encoding="utf-8"?>
<!-- Generator: Adobe Illustrator 18.1.1, SVG Export Plug-In . SVG Version: 6.00 Build 0)  -->
<svg version="1.1" id="Layer_1" xmlns="http://www.w3.org/2000/svg" xmlns:xlink="http://www.w3.org/1999/xlink" x="0px" y="0px"
	 viewBox="0 0 60 50" enable-background="new 0 0 60 50" xml:space="preserve">
<g>
	<path fill="#fff" d="M23.7,40h25.2c0.3,0,0.7-0.2,0.8-0.5c0.2-0.3,0.2-0.6,0.1-1l-6.3-14c-0.1-0.3-0.4-0.5-0.8-0.6
		c-0.3-0.1-0.7,0.1-0.9,0.3l-7.1,8.2l-4.3-2.2c-0.4-0.2-0.9-0.1-1.2,0.3l-6.3,7.7c-0.2,0.3-0.3,0.7-0.1,1.1C23,39.8,23.3,40,23.7,40
		z M30.3,32.5l4.3,2.2c0.4,0.2,0.9,0.1,1.2-0.2l6.5-7.6l5,11.2H25.8L30.3,32.5z"/>
	<path fill="#fff" d="M29,28c2.8,0,5-2.2,5-5s-2.2-5-5-5s-5,2.2-5,5S26.2,28,29,28z M29,20c1.7,0,3,1.3,3,3s-1.3,3-3,3
		s-3-1.3-3-3S27.3,20,29,20z"/>
	<path fill="#fff" d="M59,10h-7V5c0-0.6-0.4-1-1-1H20V1c0-0.6-0.4-1-1-1H1C0.4,0,0,0.4,0,1v42c0,4.1,2.9,7,7,7h44
		c4.7,0,9-4.2,9-8.9V11C60,10.4,59.6,10,59,10z M12,43c0,3-2,5-5,5c-2.9,0-5-2.1-5-5V2h16v3c0,0.6,0.4,1,1,1h31v4H13
		c-0.6,0-1,0.4-1,1V43z M58,41.1c0,3.6-3.3,6.9-7,6.9H12.1c1.2-1.2,1.9-3,1.9-5V12h44V41.1z"/>
</g>
</svg>
